<svg version="1.1" xmlns="http://www.w3.org/2000/svg" xmlns:xlink="http://www.w3.org/1999/xlink" x="0px" y="0px"
	 viewBox="0 0 230 30" style="enable-background:new 0 0 230 30;" xml:space="preserve">
<g>
	<g>
		<path d="M115.52,27.26c-2.3,0.02-4.6-0.32-6.79-1c-1.98-0.61-3.82-1.63-5.39-2.99l4.23-5.03
			c1.21,0.95,2.58,1.67,4.05,2.13c1.37,0.42,2.79,0.64,4.23,0.64c0.54,0.04,1.07-0.05,1.57-0.27c0.28-0.14,0.47-0.42,0.47-0.74l0,0
			c-0.04-0.39-0.31-0.73-0.69-0.85c-0.83-0.33-1.7-0.57-2.58-0.7c-1.33-0.27-2.59-0.59-3.8-0.95c-1.1-0.32-2.15-0.78-3.13-1.38
			c-0.88-0.53-1.62-1.26-2.18-2.13c-0.56-0.94-0.85-2.03-0.81-3.13l0,0c-0.01-1.08,0.22-2.15,0.66-3.13
			c0.44-0.98,1.1-1.85,1.93-2.54c0.92-0.76,1.99-1.34,3.13-1.69c1.39-0.43,2.85-0.63,4.31-0.61c2.04-0.04,4.07,0.24,6.03,0.81
			c1.7,0.51,3.29,1.33,4.7,2.43l-3.85,5.34c-1.08-0.79-2.29-1.38-3.57-1.77c-1.15-0.36-2.34-0.55-3.54-0.56
			c-0.45-0.03-0.9,0.06-1.3,0.27c-0.26,0.14-0.42,0.41-0.42,0.7l0,0c0.04,0.37,0.29,0.69,0.64,0.81c0.8,0.33,1.64,0.57,2.5,0.7
			c1.4,0.24,2.78,0.56,4.13,0.97c1.11,0.34,2.16,0.83,3.13,1.47c0.85,0.55,1.55,1.28,2.07,2.14c0.49,0.91,0.74,1.93,0.72,2.96l0,0
			c0.05,1.2-0.2,2.39-0.72,3.48c-0.49,0.99-1.21,1.85-2.1,2.52c-0.99,0.72-2.09,1.25-3.27,1.57
			C118.44,27.12,116.98,27.29,115.52,27.26z"/>
		<path d="M132.49,9.85h-6.97V3.16h21.84v6.68h-6.97v16.97h-7.91V9.85z"/>
		<path d="M148.47,3.16h11.55c1.76-0.06,3.53,0.18,5.21,0.7c1.23,0.4,2.35,1.08,3.29,1.97
			c0.68,0.7,1.21,1.52,1.57,2.43c0.38,1,0.56,2.06,0.55,3.13l0,0c0.05,1.56-0.39,3.09-1.25,4.38c-0.87,1.23-2.05,2.2-3.41,2.83
			l5.51,8.05h-9.02L158,19.9h-1.69v6.76h-7.91V3.16H148.47z M159.79,14.42c0.79,0.04,1.57-0.17,2.22-0.61
			c0.53-0.39,0.84-1.03,0.81-1.69l0,0c0.05-0.67-0.26-1.32-0.81-1.71c-0.66-0.4-1.42-0.6-2.19-0.56h-3.44v4.7h3.41V14.42z"/>
		<polygon points="217.27,16.64 222.42,26.82 230,26.82 217.27,1.69 204.53,26.82 212.11,26.82 		"/>
		<polygon points="181.83,16.64 186.98,26.82 194.56,26.82 181.83,1.69 169.12,26.82 176.68,26.82 		"/>
		<polygon points="199.55,13.34 194.4,3.16 186.82,3.16 199.55,28.31 212.28,3.16 204.7,3.16 		"/>
	</g>
	<g>
		<path d="M0,27.04v-9.86h3.93c0.89-0.04,1.76,0.25,2.44,0.83C7,18.59,7.34,19.43,7.3,20.29
			c0.04,0.85-0.29,1.67-0.91,2.25c-0.68,0.58-1.56,0.88-2.46,0.83H1.66v3.66H0z M1.66,21.84h2.18c0.44,0.01,0.87-0.14,1.21-0.42
			c0.64-0.58,0.7-1.57,0.12-2.21c-0.04-0.04-0.08-0.08-0.12-0.12c-0.35-0.26-0.77-0.39-1.21-0.38H1.66
			C1.66,18.71,1.66,21.84,1.66,21.84z"/>
		<path d="M14.97,26.96c-0.5,0.19-1.03,0.29-1.57,0.28c-0.54,0-1.07-0.1-1.57-0.3
			c-1.12-0.44-1.98-1.38-2.32-2.54c-0.25-0.77-0.37-1.58-0.36-2.4c-0.08-1.36,0.36-2.69,1.25-3.73c0.76-0.85,1.86-1.34,3.01-1.33
			c1.14-0.01,2.22,0.48,2.97,1.33c0.89,1.04,1.34,2.38,1.25,3.74c0.01,0.81-0.11,1.62-0.36,2.4c-0.2,0.59-0.52,1.12-0.95,1.57
			C15.95,26.41,15.48,26.74,14.97,26.96z M11.57,24.82c0.77,1,2.2,1.19,3.2,0.43c0.16-0.12,0.3-0.27,0.43-0.43
			c0.53-0.83,0.78-1.81,0.7-2.79c0.06-0.93-0.19-1.85-0.72-2.61c-0.74-0.99-2.14-1.19-3.13-0.45c-0.17,0.13-0.32,0.28-0.45,0.45
			c-0.53,0.76-0.78,1.69-0.72,2.61C10.8,23.01,11.04,23.99,11.57,24.82z"/>
		<path d="M21.4,27.04l-1.91-9.86h1.72l1.41,6.94l0,0l2.33-6.95h0.94l2.33,6.95l0,0l1.35-6.95h1.66
			l-1.89,9.86h-1.75l-2.22-6.76l0,0l-2.21,6.78H21.4z"/>
		<path d="M33.96,27.04v-9.86h6.14v1.57h-4.48v2.5h4.09v1.41h-4.09v2.77h4.48v1.57h-6.14V27.04z"/>
		<path d="M43.21,27.04v-9.86h3.93c0.89-0.04,1.76,0.25,2.44,0.81c1.09,1.11,1.23,2.85,0.33,4.12
			c-0.4,0.49-0.95,0.84-1.57,1l2.13,3.93h-1.89l-2-3.79h-1.72v3.79H43.21z M44.87,21.81h2.14c0.86,0,1.57-0.7,1.57-1.57
			c0-0.86-0.7-1.57-1.57-1.57h-2.14C44.87,18.68,44.87,21.81,44.87,21.81z"/>
		<path d="M53.24,27.04v-9.86h6.14v1.57h-4.46v2.5H59v1.41h-4.09v2.77h4.48v1.57h-6.15V27.04z"/>
		<path d="M62.49,27.04v-9.86h3.22c0.54,0,1.07,0.1,1.57,0.3c0.5,0.2,0.96,0.5,1.35,0.88
			c0.44,0.44,0.77,0.98,0.97,1.57c0.25,0.71,0.37,1.46,0.36,2.21c0.02,0.8-0.1,1.59-0.36,2.35c-0.19,0.6-0.54,1.14-1,1.57
			c-0.4,0.35-0.87,0.62-1.38,0.8c-0.51,0.17-1.03,0.25-1.57,0.25h-3.13L62.49,27.04z M64.15,25.47h1.46
			c0.72,0.04,1.42-0.23,1.93-0.75c0.54-0.78,0.78-1.72,0.69-2.66c0.06-0.9-0.19-1.8-0.7-2.54c-0.45-0.55-1.12-0.86-1.83-0.83h-1.57
			v6.79L64.15,25.47z"/>
		<path d="M77.41,27.04v-9.86h4.05c0.77-0.04,1.53,0.23,2.1,0.75c0.51,0.48,0.8,1.16,0.78,1.86
			c0.02,0.8-0.43,1.54-1.14,1.89l0,0c0.42,0.19,0.78,0.48,1.06,0.85c0.3,0.42,0.46,0.92,0.44,1.44c0,2.01-1.21,3.02-3.62,3.02h-3.68
			V27.04z M78.98,21.21h2.18c0.39,0.02,0.77-0.09,1.08-0.31c0.26-0.23,0.4-0.57,0.38-0.92c0.02-0.36-0.12-0.7-0.39-0.94
			c-0.31-0.24-0.7-0.35-1.1-0.33h-2.14V21.21z M78.98,25.5h2.47c0.22-0.02,0.44-0.06,0.66-0.13c0.18-0.04,0.35-0.12,0.5-0.23
			c0.13-0.12,0.23-0.27,0.3-0.44c0.09-0.22,0.13-0.45,0.13-0.69c0.06-0.46-0.15-0.9-0.55-1.14c-0.53-0.2-1.1-0.27-1.66-0.22h-1.85
			v2.9V25.5z"/>
		<path d="M89.26,27.04v-4.16l-3.22-5.7h1.77l2.25,4.2l0,0l2.27-4.2h1.77l-3.22,5.71v4.15h-1.57H89.26z"/>
	</g>
</g>
</svg>
