<svg version="1.1" xmlns="http://www.w3.org/2000/svg" xmlns:xlink="http://www.w3.org/1999/xlink" x="0px" y="0px"
	 viewBox="0 0 48 48" style="enable-background:new 0 0 48 48;" xml:space="preserve">
<path d="M36.81,15.29v-0.27c0-2.74-1.55-5.12-3.82-6.31c-0.76-0.63-1.14-1.44-1.26-1.73c-0.25-0.61-0.36-1.29-0.36-1.29
	s-0.43-3.24-0.51-3.78c-0.09-0.54-0.43-0.82-0.43-0.82c-0.37-0.31-0.76-0.44-1.35-0.61C28,0.21,27.99,0.26,27.99,0.26
	S26.49,0,23.43,0s-4.56,0.26-4.56,0.26s-0.01-0.05-1.09,0.23c-0.6,0.17-0.98,0.29-1.35,0.61c0,0-0.34,0.28-0.43,0.82
	c-0.09,0.54-0.51,3.78-0.51,3.78s-0.11,0.69-0.36,1.29c-0.12,0.3-0.51,1.13-1.3,1.76c-2.23,1.2-3.75,3.56-3.75,6.28v17.88
	c0,2.63,1.43,4.92,3.54,6.15l0,0.02c0.95,0.64,1.37,1.61,1.51,1.94c0.25,0.61,0.36,1.29,0.36,1.29s0.43,3.24,0.51,3.78
	c0.09,0.54,0.43,0.82,0.43,0.82c0.37,0.31,0.76,0.44,1.35,0.61c1.07,0.28,1.09,0.23,1.09,0.23S20.37,48,23.43,48
	s4.56-0.26,4.56-0.26s0.01,0.05,1.09-0.23c0.6-0.17,0.98-0.29,1.35-0.61c0,0,0.34-0.28,0.43-0.82c0.09-0.54,0.51-3.78,0.51-3.78
	s0.11-0.69,0.36-1.29c0.13-0.33,0.56-1.3,1.5-1.94c2.13-1.23,3.57-3.53,3.57-6.17V20.7h1.11v-5.4H36.81z M27.15,0.27
	c0.78,0.06,1.4,0.21,1.39,0.34c-0.01,0.13-0.65,0.18-1.43,0.12c-0.78-0.06-1.4-0.21-1.39-0.34C25.73,0.26,26.37,0.21,27.15,0.27z
	 M27.13,1.28c0.78,0,1.41,0.27,1.41,0.59c0,0.33-0.63,0.59-1.41,0.59s-1.41-0.27-1.41-0.59C25.72,1.55,26.35,1.28,27.13,1.28z
	 M27.13,3.36c0.78,0,1.41,0.41,1.41,0.92c0,0.51-0.63,0.92-1.41,0.92s-1.41-0.41-1.41-0.92S26.35,3.36,27.13,3.36z M23.43,0.5
	c0.78,0,1.41,0.21,1.41,0.48c0,0.26-0.63,0.48-1.41,0.48c-0.78,0-1.41-0.21-1.41-0.48S22.65,0.5,23.43,0.5z M24.96,5.79
	c0,0.6-0.66,1.09-1.47,1.09c-0.81,0-1.47-0.49-1.47-1.09c0-0.6,0.66-1.09,1.47-1.09C24.3,4.7,24.96,5.19,24.96,5.79z M23.43,2.09
	c0.78,0,1.41,0.35,1.41,0.79s-0.63,0.79-1.41,0.79c-0.78,0-1.41-0.35-1.41-0.79S22.65,2.09,23.43,2.09z M19.86,0.27
	c0.78-0.06,1.42-0.01,1.43,0.12c0.01,0.13-0.61,0.28-1.39,0.34c-0.78,0.06-1.42,0.01-1.43-0.12C18.46,0.48,19.08,0.33,19.86,0.27z
	 M19.82,1.28c0.78,0,1.41,0.27,1.41,0.59c0,0.33-0.63,0.59-1.41,0.59c-0.78,0-1.41-0.27-1.41-0.59C18.41,1.55,19.04,1.28,19.82,1.28
	z M19.82,3.36c0.78,0,1.41,0.41,1.41,0.92c0,0.51-0.63,0.92-1.41,0.92c-0.78,0-1.41-0.41-1.41-0.92S19.04,3.36,19.82,3.36z
	 M19.82,45.53c0.78,0,1.41,0.27,1.41,0.59c0,0.33-0.63,0.59-1.41,0.59c-0.78,0-1.41-0.27-1.41-0.59
	C18.41,45.79,19.04,45.53,19.82,45.53z M18.41,43.72c0-0.51,0.63-0.92,1.41-0.92c0.78,0,1.41,0.41,1.41,0.92
	c0,0.51-0.63,0.92-1.41,0.92C19.04,44.64,18.41,44.23,18.41,43.72z M19.86,47.73c-0.78-0.06-1.4-0.21-1.39-0.34
	c0.01-0.13,0.65-0.18,1.43-0.12c0.78,0.06,1.4,0.21,1.39,0.34S20.64,47.79,19.86,47.73z M23.43,47.5c-0.78,0-1.41-0.21-1.41-0.48
	c0-0.26,0.63-0.48,1.41-0.48c0.78,0,1.41,0.21,1.41,0.48C24.84,47.29,24.21,47.5,23.43,47.5z M23.43,45.91
	c-0.78,0-1.41-0.35-1.41-0.79c0-0.44,0.63-0.79,1.41-0.79c0.78,0,1.41,0.35,1.41,0.79C24.84,45.56,24.21,45.91,23.43,45.91z
	 M23.49,43.3c-0.81,0-1.47-0.49-1.47-1.09c0-0.6,0.66-1.09,1.47-1.09c0.81,0,1.47,0.49,1.47,1.09C24.96,42.81,24.3,43.3,23.49,43.3z
	 M27.15,47.73c-0.78,0.06-1.42,0.01-1.43-0.12c-0.01-0.13,0.61-0.28,1.39-0.34s1.42-0.01,1.43,0.12
	C28.55,47.52,27.93,47.67,27.15,47.73z M27.13,46.72c-0.78,0-1.41-0.27-1.41-0.59c0-0.33,0.63-0.59,1.41-0.59s1.41,0.27,1.41,0.59
	C28.54,46.45,27.91,46.72,27.13,46.72z M27.13,44.64c-0.78,0-1.41-0.41-1.41-0.92c0-0.51,0.63-0.92,1.41-0.92s1.41,0.41,1.41,0.92
	C28.54,44.23,27.91,44.64,27.13,44.64z M35.7,15.29L35.7,15.29l0,5.4h0v12.21c0,3.32-2.7,6.02-6.02,6.02H17.2
	c-3.32,0-6.02-2.7-6.02-6.02V15.02c0-3.32,2.7-6.02,6.02-6.02h12.48c3.32,0,6.02,2.7,6.02,6.02V15.29z"/>
</svg>
