<?xml version="1.0" encoding="utf-8" ?>
<svg baseProfile="full" height="200mm" version="1.1" viewBox="0,0,200,200" width="200mm" xmlns="http://www.w3.org/2000/svg" xmlns:ev="http://www.w3.org/2001/xml-events" xmlns:xlink="http://www.w3.org/1999/xlink"><defs /><rect fill="#1a1a1a" height="200" width="200" x="0" y="0" /><text alignment-baseline="middle" fill="#e1ed5e" style="dominant-baseline: central; font-size:9.0px; font-family:Arial;" text-anchor="middle" x="100.0" y="100.0">2024</text><line stroke="#e1ed5e" stroke-width="0.3" x1="100.0" x2="100.0" y1="15.0" y2="10.0" /><path d="M 100.0 14.0 a86.0,86.0 0 0,1 42.35913384403234,11.155469271406648" fill="none" id="id121" stroke="none" /><text fill="#e1ed5e" style="font-size:6.75px; font-family:Arial;" text-anchor="middle"><textPath startOffset="22.145653131862478" xlink:href="#id121">January</textPath></text><path d="M 104.64783097203109 79.52079915486377 l 7.621626693373777 -33.582293495506505 a55.43631266369102,55.43631266369102 0 0,0 0.926229506138648,0.21858764145652818 l -8.19698835325231 33.44650971040375" fill="red" stroke="none" /><path d="M 105.69591212413111 79.78721728523813 l 4.716477457908189 -16.737114611000667 a38.38896676380538,38.38896676380538 0 0,0 0.632759832395552,0.18418716526973952 l -5.003097302685346 16.65368375142841" fill="red" stroke="none" /><path d="M 106.04205211174951 79.88797359093562 l 11.843951095371448 -39.424661160164 a62.165314102327635,62.165314102327635 0 0,0 1.0193908676958985,0.3158098965956142 l -12.518982595938978 39.21553467576174" fill="red" stroke="none" /><line stroke="#e1ed5e" stroke-width="0.3" x1="143.13028292997686" x2="145.6673583964461" y1="26.7553504044142" y2="22.446841604673864" /><path d="M 143.63769802327073 25.89364864446614 a86.0,86.0 0 0,1 29.32050498858742,28.57503671076993" fill="none" id="id122" stroke="none" /><text fill="#e1ed5e" style="font-size:6.75px; font-family:Arial;" text-anchor="middle"><textPath startOffset="20.669276256404974" xlink:href="#id122">February</textPath></text><line stroke="#e1ed5e" stroke-width="0.3" x1="172.87174338648825" x2="177.1583165268699" y1="56.24261187166439" y2="53.66864786411523" /><path d="M 173.72905801456457 55.72781907015455 a86.0,86.0 0 0,1 12.242430191666344,42.057860355516425" fill="none" id="id123" stroke="none" /><text fill="#e1ed5e" style="font-size:6.75px; font-family:Arial;" text-anchor="middle"><textPath startOffset="22.145653131862474" xlink:href="#id123">March</textPath></text><path d="M 118.8641267826498 90.77261029715802 l 23.577201064212662 -11.532790509118438 a47.24670773543842,47.24670773543842 0 0,0 0.35012227222571873,0.7316208892451685 l -23.771702594398292 11.126357117808167" fill="red" stroke="none" /><path d="M 119.0197475246899 91.09779779509293 l 35.825938538981156 -16.768348193927107 a60.55597771957652,60.55597771957652 0 0,0 0.43258749542037406,0.9452817471066326 l -36.10851049925658 16.15087746460579" fill="red" stroke="none" /><path d="M 120.93736805541906 98.37931529534042 l 15.255261862504604 -1.1808537491768774 a36.30089638127559,36.30089638127559 0 0,0 0.04275906583953072,0.6217074329818049 l -15.2732848895092 0.9188028920407384" fill="red" stroke="none" /><line stroke="#e1ed5e" stroke-width="0.3" x1="184.99686870605535" x2="189.99668451229388" y1="99.2704041080226" y2="99.22748670261217" /><path d="M 185.99683186730306 99.26182062694052 a86.0,86.0 0 0,1 -10.086455211305974,41.156179273409016" fill="none" id="id124" stroke="none" /><text fill="#e1ed5e" style="font-size:6.75px; font-family:Arial;" text-anchor="middle"><textPath startOffset="21.40746469413373" xlink:href="#id124">April</textPath></text><line stroke="#e1ed5e" stroke-width="0.3" x1="174.33088141563837" x2="178.70328620479359" y1="141.23008692659167" y2="143.65538615756765" /><path d="M 175.20536237346943 141.71514677278685 a86.0,86.0 0 0,1 -30.301960400862466,31.631185727798858" fill="none" id="id125" stroke="none" /><text fill="#e1ed5e" style="font-size:6.75px; font-family:Arial;" text-anchor="middle"><textPath startOffset="22.145653131862474" xlink:href="#id125">May</textPath></text><path d="M 113.31354834802062 116.24036423190432 l 11.078007675912103 13.513368105760666 a38.473790991921504,38.473790991921504 0 0,0 -0.5143565324997613,0.414329213193287 l -10.84440037305709 -13.701545612747356" fill="red" stroke="none" /><path d="M 112.7482090630111 116.68781488649013 l 16.661926644880957 21.810996833179935 a48.44702866206794,48.44702866206794 0 0,0 -0.6652169481362726,0.49919119943173396 l -16.28505670783392 -22.093807059875683" fill="red" stroke="none" /><path d="M 111.8722381534696 117.32195027204791 l 26.120982276904996 38.1112937770173 a67.20364085727988,67.20364085727988 0 0,0 -0.9571837349432523,0.6440359346226545 l -25.46290225386474 -38.55407938569708" fill="red" stroke="none" /><line stroke="#e1ed5e" stroke-width="0.3" x1="143.1302829299769" x2="145.66735839644613" y1="173.24464959558577" y2="177.55315839532614" /><path d="M 143.63769802327073 174.10635135553383 a86.0,86.0 0 0,1 -40.68552437913181,11.842963189579606" fill="none" id="id126" stroke="none" /><text fill="#e1ed5e" style="font-size:6.75px; font-family:Arial;" text-anchor="middle"><textPath startOffset="21.407464694133747" xlink:href="#id126">June</textPath></text><path d="M 104.29559338865022 120.5559693870025 l 2.587909226582881 12.384082482884835 a33.65159172230624,33.65159172230624 0 0,0 -0.566474092443455,0.11331068352092052 l -2.3749386486084676 -12.426682563068617" fill="red" stroke="none" /><path d="M 102.51750503828377 120.84855314841334 l 3.4848439748466356 28.85950721792706 a50.06914677782286,50.06914677782286 0 0,0 -0.8541894156178073,0.09571370568859759 l -2.988918657628029 -28.915076684122628" fill="red" stroke="none" /><line stroke="#e1ed5e" stroke-width="0.3" x1="101.45913802915013" x2="101.54496967792366" y1="184.9874750549273" y2="189.98673829345242" /><path d="M 101.47630435890484 185.9873277026323 a86.0,86.0 0 0,1 -42.54439059252881,-10.42667462771756" fill="none" id="id127" stroke="none" /><text fill="#e1ed5e" style="font-size:6.75px; font-family:Arial;" text-anchor="middle"><textPath startOffset="22.145653131862474" xlink:href="#id127">July</textPath></text><path d="M 92.59220618246901 119.65005319985036 l -9.250383131471432 24.53774026785697 a47.223468220886055,47.223468220886055 0 0,0 -0.7560876131960613,-0.29247093139610125 l 9.670243007161023 -24.37532944832283" fill="red" stroke="none" /><path d="M 91.92203290615298 119.3841803445677 l -12.955469191882173 31.088409787559193 a54.67986646501162,54.67986646501162 0 0,0 -0.8633298006744019,-0.3685041551446563 l 13.487234067727007 -30.86143098275513" fill="red" stroke="none" /><line stroke="#e1ed5e" stroke-width="0.3" x1="58.13341422392154" x2="55.67067388415222" y1="173.97424548756322" y2="178.32567169271397" /><path d="M 57.64086615596768 174.84453072859336 a86.0,86.0 0 0,1 -31.369924170532247,-30.572349798747897" fill="none" id="id128" stroke="none" /><text fill="#e1ed5e" style="font-size:6.75px; font-family:Arial;" text-anchor="middle"><textPath startOffset="22.145653131862474" xlink:href="#id128">August</textPath></text><path d="M 88.4268655584334 117.5232005979908 l -17.724710698003722 26.83747109918038 a53.16232616474234,53.16232616474234 0 0,0 -0.7571928137748624,-0.5094731175493349 l 18.18279979987559 -26.529248307573923" fill="red" stroke="none" /><line stroke="#e1ed5e" stroke-width="0.3" x1="26.387840678322732" x2="22.057713659400548" y1="142.50000000000003" y2="145.00000000000006" /><path d="M 25.521815274538298 143.00000000000003 a86.0,86.0 0 0,1 -11.493303480769221,-40.785679425670985" fill="none" id="id129" stroke="none" /><text fill="#e1ed5e" style="font-size:6.75px; font-family:Arial;" text-anchor="middle"><textPath startOffset="21.40746469413373" xlink:href="#id129">September</textPath></text><line stroke="#e1ed5e" stroke-width="0.3" x1="15.003131293944662" x2="10.003315487706104" y1="100.72959589197737" y2="100.7725132973878" /><path d="M 14.003168132696942 100.73817937305945 a86.0,86.0 0 0,1 10.791469493833604,-42.45332614584628" fill="none" id="id130" stroke="none" /><text fill="#e1ed5e" style="font-size:6.75px; font-family:Arial;" text-anchor="middle"><textPath startOffset="22.145653131862435" xlink:href="#id130">October</textPath></text><path d="M 79.00077361379809 100.18025310272382 l -38.443712653392396 0.3299930368173128 a59.445128923973584,59.445128923973584 0 0,0 0.0,-1.0204922790822464 l 38.443712653392396 0.32999303681729864" fill="red" stroke="none" /><path d="M 79.00696218219943 99.45929381324524 l -62.97911345340172 -1.6221185602642838 a84.0,84.0 0 0,0 0.04950125201259814,-1.4411749417434458 l 62.941987514392274 2.7029997665718684" fill="red" stroke="none" /><line stroke="#e1ed5e" stroke-width="0.3" x1="26.387840678322718" x2="22.05771365940052" y1="57.49999999999999" y2="54.99999999999999" /><path d="M 25.521815274538284 56.99999999999999 a86.0,86.0 0 0,1 29.574782752854787,-30.34633250058573" fill="none" id="id131" stroke="none" /><text fill="#e1ed5e" style="font-size:6.75px; font-family:Arial;" text-anchor="middle"><textPath startOffset="21.40746469413373" xlink:href="#id131">November</textPath></text><path d="M 83.8745106332314 86.54754324733833 l -30.45456507432288 -25.406281339140964 a60.66055553506215,60.66055553506215 0 0,0 0.6739255898575522,-0.7938826502904041 l 30.013944920958213 25.925330771880922" fill="red" stroke="none" /><line stroke="#e1ed5e" stroke-width="0.3" x1="56.869717070023135" x2="54.33264160355391" y1="26.7553504044142" y2="22.446841604673864" /><path d="M 56.362301976729285 25.89364864446614 a86.0,86.0 0 0,1 42.16139366436587,-11.88097634709845" fill="none" id="id132" stroke="none" /><text fill="#e1ed5e" style="font-size:6.75px; font-family:Arial;" text-anchor="middle"><textPath startOffset="22.145653131862474" xlink:href="#id132">December</textPath></text></svg>