<?xml version="1.0" encoding="utf-8" ?>
<svg baseProfile="full" height="200mm" version="1.1" viewBox="0,0,200,200" width="200mm" xmlns="http://www.w3.org/2000/svg" xmlns:ev="http://www.w3.org/2001/xml-events" xmlns:xlink="http://www.w3.org/1999/xlink"><defs /><rect fill="#1a1a1a" height="200" width="200" x="0" y="0" /><rect fill="#1a1a1a" height="200" width="180" x="10" y="0" /><text alignment-baseline="middle" fill="#e1ed5e" style="dominant-baseline: central; font-size:9.0px; font-family:Arial;" text-anchor="middle" x="100.0" y="100.0">2025</text><line stroke="#e1ed5e" stroke-width="0.3" x1="100.0" x2="100.0" y1="15.0" y2="10.0" /><path d="M 100.0 14.0 a86.0,86.0 0 0,1 42.46469731375804,11.215312516191453" fill="none" id="id133" stroke="none" /><text fill="#e1ed5e" style="font-size:6.75px; font-family:Arial;" text-anchor="middle"><textPath startOffset="22.20632615414155" xlink:href="#id133">January</textPath></text><line stroke="#e1ed5e" stroke-width="0.3" x1="143.23703022742887" x2="145.7803849466894" y1="26.81831364943548" y2="22.513508569990506" /><path d="M 143.74570117128098 25.957352633546492 a86.0,86.0 0 0,1 28.547481713284135,27.462654790039103" fill="none" id="id134" stroke="none" /><text fill="#e1ed5e" style="font-size:6.75px; font-family:Arial;" text-anchor="middle"><textPath startOffset="19.985693538727396" xlink:href="#id134">February</textPath></text><path d="M 114.94478906791727 85.2469230424477 l 9.505007002969242 -9.383076546587967 a34.356170244708004,34.356170244708004 0 0,0 0.41184170537585263,0.42443907929776414 l -9.665112972048203 9.218073271740089" fill="red" stroke="none" /><line stroke="#e1ed5e" stroke-width="0.3" x1="172.23445277983987" x2="176.4835382374775" y1="55.19839476539836" y2="52.563006222186495" /><path d="M 173.08426987136738 54.67131705675599 a86.0,86.0 0 0,1 12.851231095245387,41.99856678651699" fill="none" id="id135" stroke="none" /><text fill="#e1ed5e" style="font-size:6.75px; font-family:Arial;" text-anchor="middle"><textPath startOffset="22.20632615414155" xlink:href="#id135">March</textPath></text><path d="M 117.84615892207809 88.93136811851018 l 5.89357275016383 -3.6553404866097026 a27.935107341240055,27.935107341240055 0 0,0 0.2499316829808349,0.41082197170925583 l -5.955620231430889 3.5533507416933654" fill="red" stroke="none" /><path d="M 120.6074358757038 95.95851677861258 l 12.030337058438946 -2.359362206078241 a33.2595105839964,33.2595105839964 0 0,0 0.10534439379080447,0.5627539639695164 l -12.06916717613961 2.151930164646162" fill="red" stroke="none" /><path d="M 120.78858239683441 97.02765380044208 l 10.046774511750414 -1.4364852527108323 a31.14894910674073,31.14894910674073 0 0,0 0.07132219515218732,0.5314331966145934 l -10.070012705960437 1.2633337140315746" fill="red" stroke="none" /><line stroke="#e1ed5e" stroke-width="0.3" x1="184.98032266829074" x2="189.97916517819016" y1="98.17113171792111" y2="98.06355123074" /><path d="M 185.9800911702706 98.14961562048488 a86.0,86.0 0 0,1 -9.607161424134198,41.387399972396054" fill="none" id="id136" stroke="none" /><text fill="#e1ed5e" style="font-size:6.75px; font-family:Arial;" text-anchor="middle"><textPath startOffset="21.466115282336823" xlink:href="#id136">April</textPath></text><path d="M 120.9904718944345 100.63252640178507 l 22.391202228780116 0.6747359777636717 a43.40136616123705,43.40136616123705 0 0,0 -0.028929836076251495,0.7465505222912001 l -22.37627025985266 -1.060063747068878" fill="red" stroke="none" /><path d="M 120.89721153311464 102.0752229133903 l 12.857855668502287 1.2768649376046353 a33.921100435370064,33.921100435370064 0 0,0 -0.06270185949774919,0.5805413458184479 l -12.833971507503486 -1.4980026053078745" fill="red" stroke="none" /><line stroke="#e1ed5e" stroke-width="0.3" x1="174.80103733775053" x2="179.2010983576182" y1="140.37084112569926" y2="142.7455964860345" /><path d="M 175.68104954172406 140.8457921977663 a86.0,86.0 0 0,1 -30.038265399797805,32.042727171017184" fill="none" id="id137" stroke="none" /><text fill="#e1ed5e" style="font-size:6.75px; font-family:Arial;" text-anchor="middle"><textPath startOffset="22.206326154141568" xlink:href="#id137">May</textPath></text><path d="M 118.30583269289576 110.29060199501025 l 26.261628378628224 14.762943042203633 a51.12669268878547,51.12669268878547 0 0,0 -0.4378587439718475,0.763443627338281 l -26.003617638503997 -15.212806515400228" fill="red" stroke="none" /><path d="M 116.498646956653 112.99209946851258 l 40.52484802919913 31.91188089089942 a72.58130911274583,72.58130911274583 0 0,0 -0.7813968528572206,0.9749127191980428 l -39.96953326428705 -32.604721443675714" fill="red" stroke="none" /><path d="M 111.45004920935366 117.60387380957326 l 2.7718367137190802 4.261559303098166 a26.083696141720463,26.083696141720463 0 0,0 -0.37848461353621393,0.24156678773851034 l -2.698070298135936 -4.308640519660486" fill="red" stroke="none" /><line stroke="#e1ed5e" stroke-width="0.3" x1="143.8653032363475" x2="146.44561519142675" y1="172.8068346515853" y2="177.08958963109032" /><path d="M 144.38136562736335 173.6633856474863 a86.0,86.0 0 0,1 -40.68145358897372,12.25698825130547" fill="none" id="id138" stroke="none" /><text fill="#e1ed5e" style="font-size:6.75px; font-family:Arial;" text-anchor="middle"><textPath startOffset="21.466115282336833" xlink:href="#id138">June</textPath></text><path d="M 110.5260780823613 118.17145234162733 l 2.429641953404967 4.1943563992271455 a25.847245158384627,25.847245158384627 0 0,0 -0.3869101612965845,0.21969768731913206 l -2.3570830251871837 -4.2355572523409055" fill="red" stroke="none" /><path d="M 109.57404056367764 118.69057910512821 l 2.5871900637471468 5.050749495455754 a26.67482360006005,26.67482360006005 0 0,0 -0.4104697623624326,0.2058180600610111 l -2.4998663937019536 -5.094535396426068" fill="red" stroke="none" /><path d="M 108.59647513512805 119.15986991738527 l 1.9358523799267486 4.314638173859468 a25.72901966671671,25.72901966671671 0 0,0 -0.405635546332093,0.1778187029821283 l -1.8612961589369017 -4.34732143013605" fill="red" stroke="none" /><path d="M 108.2653958097858 119.30500536409082 l 1.8612961589369017 4.34732143013605 a25.72901966671671,25.72901966671671 0 0,0 -0.4086363037143402,0.1708100080939797 l -1.7861883957251006 -4.378716481250003" fill="red" stroke="none" /><path d="M 107.93186726928326 119.44442032107085 l 1.830843105618228 4.488184393281253 a25.847245158384627,25.847245158384627 0 0,0 -0.4134068995752529,0.1645031370870506 l -1.753315130001109 -4.519034374774373" fill="red" stroke="none" /><path d="M 107.2578585660854 119.70592522655815 l 1.6344074236793433 4.437605140344877 a25.72901966671671,25.72901966671671 0 0,0 -0.4169086722265027,0.1494886169603491 l -1.5577791908231058 -4.4650812983451855" fill="red" stroke="none" /><path d="M 102.70371172650421 120.8252237178851 l 2.4559289876595156 18.916687789558566 a40.07544662963519,40.07544662963519 0 0,0 -0.6848561335401931,0.08292654020886735 l -2.129945431067942 -18.956159858492786" fill="red" stroke="none" /><line stroke="#e1ed5e" stroke-width="0.3" x1="102.19456741930631" x2="102.32365962044197" y1="184.97166512339345" y2="189.96999836594603" /><path d="M 102.22038585953345 185.97133177190398 a86.0,86.0 0 0,1 -42.740103519485714,-10.115201625700543" fill="none" id="id139" stroke="none" /><text fill="#e1ed5e" style="font-size:6.75px; font-family:Arial;" text-anchor="middle"><textPath startOffset="22.20632615414155" xlink:href="#id139">July</textPath></text><line stroke="#e1ed5e" stroke-width="0.3" x1="58.666819895761336" x2="56.23545636021788" y1="174.27360380694188" y2="178.64263932499728" /><path d="M 58.180547188652646 175.14741091055294 a86.0,86.0 0 0,1 -31.652253787137756,-30.449443065178592" fill="none" id="id140" stroke="none" /><text fill="#e1ed5e" style="font-size:6.75px; font-family:Arial;" text-anchor="middle"><textPath startOffset="22.20632615414155" xlink:href="#id140">August</textPath></text><line stroke="#e1ed5e" stroke-width="0.3" x1="26.63291911575756" x2="22.317208475507996" y1="142.92168965132927" y2="145.44649492493687" /><path d="M 25.769776987707644 143.4266507060508 a86.0,86.0 0 0,1 -11.730757126820373,-40.83630448921669" fill="none" id="id141" stroke="none" /><text fill="#e1ed5e" style="font-size:6.75px; font-family:Arial;" text-anchor="middle"><textPath startOffset="21.46611528233685" xlink:href="#id141">September</textPath></text><path d="M 81.02952815118164 109.00673069616217 l -56.9114155464551 27.020192088486496 a84.0,84.0 0 0,0 -0.6089015326406932,-1.3115197308846915 l 57.36809169593562 -26.03655229032298" fill="red" stroke="none" /><line stroke="#e1ed5e" stroke-width="0.3" x1="15.007084014347285" x2="10.007500721073583" y1="101.09737516637583" y2="101.16192664675087" /><path d="M 14.007167355692545 101.11028546245083 a86.0,86.0 0 0,1 10.666146001902534,-42.60595125391555" fill="none" id="id142" stroke="none" /><text fill="#e1ed5e" style="font-size:6.75px; font-family:Arial;" text-anchor="middle"><textPath startOffset="22.20632615414155" xlink:href="#id142">October</textPath></text><path d="M 79.00486145842228 99.54816195383935 l -45.25569721963259 -0.9739514587561307 a66.26617624981233,66.26617624981233 0 0,0 0.034358398774477765,-1.140187985478763 l 45.232227126402464 1.7528095916598883" fill="red" stroke="none" /><line stroke="#e1ed5e" stroke-width="0.3" x1="26.266209847984243" x2="21.928928074336255" y1="57.711370442889674" y2="55.22380399835377" /><path d="M 25.398753493254645 57.213857153982495 a86.0,86.0 0 0,1 29.58750427330803,-30.492523968695096" fill="none" id="id143" stroke="none" /><text fill="#e1ed5e" style="font-size:6.75px; font-family:Arial;" text-anchor="middle"><textPath startOffset="21.46611528233685" xlink:href="#id143">November</textPath></text><line stroke="#e1ed5e" stroke-width="0.3" x1="56.762969772571076" x2="54.21961505331055" y1="26.818313649435495" y2="22.513508569990535" /><path d="M 56.25429882871897 25.957352633546506 a86.0,86.0 0 0,1 42.265352541879196,-11.944610805530505" fill="none" id="id144" stroke="none" /><text fill="#e1ed5e" style="font-size:6.75px; font-family:Arial;" text-anchor="middle"><textPath startOffset="22.20632615414155" xlink:href="#id144">December</textPath></text></svg>