<?xml version="1.0" encoding="utf-8" ?>
<svg baseProfile="full" height="200mm" version="1.1" viewBox="0,0,200,200" width="200mm" xmlns="http://www.w3.org/2000/svg" xmlns:ev="http://www.w3.org/2001/xml-events" xmlns:xlink="http://www.w3.org/1999/xlink"><defs /><rect fill="#1a1a1a" height="200" width="200" x="0" y="0" /><text alignment-baseline="middle" fill="#e1ed5e" style="dominant-baseline: central; font-size:9.0px; font-family:Arial;" text-anchor="middle" x="100.0" y="100.0">2023</text><line stroke="#e1ed5e" stroke-width="0.3" x1="100.0" x2="100.0" y1="15.0" y2="10.0" /><path d="M 100.0 14.0 a86.0,86.0 0 0,1 42.46469731375804,11.215312516191453" fill="none" id="id109" stroke="none" /><text fill="#e1ed5e" style="font-size:6.75px; font-family:Arial;" text-anchor="middle"><textPath startOffset="22.20632615414155" xlink:href="#id109">January</textPath></text><line stroke="#e1ed5e" stroke-width="0.3" x1="143.23703022742887" x2="145.7803849466894" y1="26.81831364943548" y2="22.513508569990506" /><path d="M 143.74570117128098 25.957352633546492 a86.0,86.0 0 0,1 28.547481713284135,27.462654790039103" fill="none" id="id110" stroke="none" /><text fill="#e1ed5e" style="font-size:6.75px; font-family:Arial;" text-anchor="middle"><textPath startOffset="19.985693538727396" xlink:href="#id110">February</textPath></text><line stroke="#e1ed5e" stroke-width="0.3" x1="172.23445277983987" x2="176.4835382374775" y1="55.19839476539836" y2="52.563006222186495" /><path d="M 173.08426987136738 54.67131705675599 a86.0,86.0 0 0,1 12.851231095245387,41.99856678651699" fill="none" id="id111" stroke="none" /><text fill="#e1ed5e" style="font-size:6.75px; font-family:Arial;" text-anchor="middle"><textPath startOffset="22.20632615414155" xlink:href="#id111">March</textPath></text><line stroke="#e1ed5e" stroke-width="0.3" x1="184.98032266829074" x2="189.97916517819016" y1="98.17113171792111" y2="98.06355123074" /><path d="M 185.9800911702706 98.14961562048488 a86.0,86.0 0 0,1 -9.607161424134198,41.387399972396054" fill="none" id="id112" stroke="none" /><text fill="#e1ed5e" style="font-size:6.75px; font-family:Arial;" text-anchor="middle"><textPath startOffset="21.466115282336823" xlink:href="#id112">April</textPath></text><line stroke="#e1ed5e" stroke-width="0.3" x1="174.80103733775053" x2="179.2010983576182" y1="140.37084112569926" y2="142.7455964860345" /><path d="M 175.68104954172406 140.8457921977663 a86.0,86.0 0 0,1 -30.038265399797805,32.042727171017184" fill="none" id="id113" stroke="none" /><text fill="#e1ed5e" style="font-size:6.75px; font-family:Arial;" text-anchor="middle"><textPath startOffset="22.206326154141568" xlink:href="#id113">May</textPath></text><path d="M 116.498646956653 112.99209946851258 l 8.693041937983061 6.84546228784442 a32.06477889837083,32.06477889837083 0 0,0 -0.3452034363258637,0.43069436427132696 l -8.573920589602343 -6.994084485693997" fill="red" stroke="none" /><path d="M 115.07121518719521 114.62390073753431 l 7.8860944959707755 7.6520348016711415 a31.988363072148957,31.988363072148957 0 0,0 -0.3868449852999779,0.39187192772896134 l -7.753208885615262 -7.7866472233807675" fill="red" stroke="none" /><path d="M 114.0293411484842 115.62618273729858 l 7.2826217129530395 8.111541125758283 a31.9010861132661,31.9010861132661 0 0,0 -0.4117634924564875,0.36333340717250723 l -7.141915867589964 -8.23569767470308" fill="red" stroke="none" /><line stroke="#e1ed5e" stroke-width="0.3" x1="143.8653032363475" x2="146.44561519142675" y1="172.8068346515853" y2="177.08958963109032" /><path d="M 144.38136562736335 173.6633856474863 a86.0,86.0 0 0,1 -40.68145358897372,12.25698825130547" fill="none" id="id114" stroke="none" /><text fill="#e1ed5e" style="font-size:6.75px; font-family:Arial;" text-anchor="middle"><textPath startOffset="21.466115282336833" xlink:href="#id114">June</textPath></text><path d="M 109.2508944713604 118.85261126421891 l 3.2700573995792954 6.664125415851292 a28.423196276183088,28.423196276183088 0 0,0 -0.4410837905405251,0.21174702407726065 l -3.1548609410385375 -6.719426716428113" fill="red" stroke="none" /><path d="M 108.92500713936063 119.00905698771935 l 2.303541408221324 4.90623135855411 a26.420093095422807,26.420093095422807 0 0,0 -0.41332600650717227,0.18973769722700987 l -2.2187474059467323 -4.945156126115194" fill="red" stroke="none" /><path d="M 105.88484417918355 120.15858648285463 l 2.334132385008837 7.995591406153488 a29.32932505818464,29.32932505818464 0 0,0 -0.48584562134623843,0.13730482557318774 l -2.196155595557993 -8.034585025065194" fill="red" stroke="none" /><path d="M 105.18746579009965 120.34920634021253 l 1.9238601007355436 7.54684999258907 a28.788207913110938,28.788207913110938 0 0,0 -0.48123837266795677,0.1182766835303475 l -1.7936684433243757 -7.578847934433448" fill="red" stroke="none" /><line stroke="#e1ed5e" stroke-width="0.3" x1="102.19456741930631" x2="102.32365962044197" y1="184.97166512339345" y2="189.96999836594603" /><path d="M 102.22038585953345 185.97133177190398 a86.0,86.0 0 0,1 -42.740103519485714,-10.115201625700543" fill="none" id="id115" stroke="none" /><text fill="#e1ed5e" style="font-size:6.75px; font-family:Arial;" text-anchor="middle"><textPath startOffset="22.20632615414155" xlink:href="#id115">July</textPath></text><path d="M 100.54218724476979 120.99299961872073 l 0.3238521728567892 12.539263154726301 a33.54344453064391,33.54344453064391 0 0,0 -0.5773310949154298,0.009939278367960921 l -0.1079613880486914 -12.54297991037342" fill="red" stroke="none" /><path d="M 95.16358092515715 120.4354850818985 l -2.9517182506166213 12.471994949776652 a33.81652443754849,33.81652443754849 0 0,0 -0.5652942773905879,-0.13893557984116855 l 3.1659658127504198 -12.419338111621455" fill="red" stroke="none" /><path d="M 93.08242187328487 119.8279376855182 l -5.155664410115421 14.777743131866226 a36.65128006206362,36.65128006206362 0 0,0 -0.5938911277619976,-0.2129482287812167 l 5.409275098507146 -14.686807362045052" fill="red" stroke="none" /><line stroke="#e1ed5e" stroke-width="0.3" x1="58.666819895761336" x2="56.23545636021788" y1="174.27360380694188" y2="178.64263932499728" /><path d="M 58.180547188652646 175.14741091055294 a86.0,86.0 0 0,1 -31.652253787137756,-30.449443065178592" fill="none" id="id116" stroke="none" /><text fill="#e1ed5e" style="font-size:6.75px; font-family:Arial;" text-anchor="middle"><textPath startOffset="22.20632615414155" xlink:href="#id116">August</textPath></text><path d="M 89.4739219176387 118.17145234162733 l -6.003819223193214 10.364554967991252 a32.97788983708301,32.97788983708301 0 0,0 -0.48875137442794414,-0.28876292695153677 l 6.181338468649541 -10.259673468745964" fill="red" stroke="none" /><path d="M 88.24862548938628 117.40417183066458 l -33.712322705270346 49.92905780029455 a81.24476338246703,81.24476338246703 0 0,0 -1.1522949254242907,-0.7925589568929206 l 34.566774515317526 -49.341358054036526" fill="red" stroke="none" /><line stroke="#e1ed5e" stroke-width="0.3" x1="26.63291911575756" x2="22.317208475507996" y1="142.92168965132927" y2="145.44649492493687" /><path d="M 25.769776987707644 143.4266507060508 a86.0,86.0 0 0,1 -11.730757126820373,-40.83630448921669" fill="none" id="id117" stroke="none" /><text fill="#e1ed5e" style="font-size:6.75px; font-family:Arial;" text-anchor="middle"><textPath startOffset="21.46611528233685" xlink:href="#id117">September</textPath></text><path d="M 81.02952815118164 109.00673069616217 l -5.678737056816845 2.6961298470945367 a27.286268425135763,27.286268425135763 0 0,0 -0.19779346028703002,-0.42602951692597035 l 5.7243051339437026 -2.597980262889739" fill="red" stroke="none" /><path d="M 80.32549172779594 107.34259656027581 l -5.935641205990411 2.215202438564129 a27.335531419705198,27.335531419705198 0 0,0 -0.16072737823157174,-0.4422527152311116 l 5.972892845227207 -2.1127019263269005" fill="red" stroke="none" /><path d="M 80.0844068197444 106.66101706037122 l -12.192589684997444 4.077962788594773 a33.85647788983708,33.85647788983708 0 0,0 -0.18009671112342027,-0.5542806829239603 l 12.260978647137113 -3.8674832056930097" fill="red" stroke="none" /><path d="M 79.50377843672027 104.57218783832718 l -4.959935695824147 1.1064360129654647 a26.081846392552364,26.081846392552364 0 0,0 -0.09397657043495009,-0.4390272506608401 l 4.978246304983538 -1.0208949428884608" fill="red" stroke="none" /><path d="M 79.4281124754447 104.21870165774334 l -12.999830878543003 2.6658909160489386 a34.27036462373933,34.27036462373933 0 0,0 -0.11353293161056642,-0.5789019723165477 l 13.043793743129235 -2.441725216664436" fill="red" stroke="none" /><path d="M 79.29508885075956 103.50808413554451 l -4.932035431316351 0.8356469210532709 a26.002327385570208,26.002327385570208 0 0,0 -0.07097179944115474,-0.44194146286795066 l 4.945688985118796 -0.7506262284921066" fill="red" stroke="none" /><path d="M 79.04373962182676 101.35467743843564 l -13.963098458780614 0.9026178388424109 a34.9922420480993,34.9922420480993 0 0,0 -0.03368194773423051,-0.6014138030474006 l 13.976566757402376 -0.6621323194595727" fill="red" stroke="none" /><line stroke="#e1ed5e" stroke-width="0.3" x1="15.007084014347285" x2="10.007500721073583" y1="101.09737516637583" y2="101.16192664675087" /><path d="M 14.007167355692545 101.11028546245083 a86.0,86.0 0 0,1 10.666146001902534,-42.60595125391555" fill="none" id="id118" stroke="none" /><text fill="#e1ed5e" style="font-size:6.75px; font-family:Arial;" text-anchor="middle"><textPath startOffset="22.20632615414155" xlink:href="#id118">October</textPath></text><path d="M 79.05617556472873 98.46500227214037 l -12.45959868459828 -0.91317876207424 a33.49301784328937,33.49301784328937 0 0,0 0.04709041144123397,-0.5746222952213672 l 12.442033789337549 1.1275149745033854" fill="red" stroke="none" /><path d="M 80.02781315780177 93.51064311812611 l -11.095044502551103 -3.604998489459479 a32.66602017067494,32.66602017067494 0 0,0 0.17836067973692657,-0.5332757302375869 l 11.031346529042404 3.795447322619388" fill="red" stroke="none" /><path d="M 80.803312248108 91.48605970444005 l -12.908068717575913 -5.724869196853756 a35.12063615205586,35.12063615205586 0 0,0 0.24985436513763307,-0.5505209741296327 l 12.807612035474929 5.9462121798254595" fill="red" stroke="none" /><line stroke="#e1ed5e" stroke-width="0.3" x1="26.266209847984243" x2="21.928928074336255" y1="57.711370442889674" y2="55.22380399835377" /><path d="M 25.398753493254645 57.213857153982495 a86.0,86.0 0 0,1 29.58750427330803,-30.492523968695096" fill="none" id="id119" stroke="none" /><text fill="#e1ed5e" style="font-size:6.75px; font-family:Arial;" text-anchor="middle"><textPath startOffset="21.46611528233685" xlink:href="#id119">November</textPath></text><path d="M 86.10567301691215 84.25364557470407 l -13.093076681244405 -14.838302437491185 a40.78898370830101,40.78898370830101 0 0,0 0.5304630665539396,-0.46001234404571484 l 12.83571981604369 15.06147977495658" fill="red" stroke="none" /><path d="M 86.37877921826538 84.01681056812374 l -38.52477157740664 -45.2051054606751 a80.39410395655545,80.39410395655545 0 0,0 1.0609819040231003,-0.8885418324132405 l 37.74093213642443 45.861548450482154" fill="red" stroke="none" /><path d="M 86.65592168130627 83.78471172551755 l -23.117855288126705 -28.092062923491508 a57.38130333591932,57.38130333591932 0 0,0 0.7680804454126863,-0.6210676371091263 l 22.63087144414952 28.48583665786477" fill="red" stroke="none" /><path d="M 86.93701828274178 83.55741782278169 l -39.18894515177469 -49.32774653165494 a84.0,84.0 0 0,0 1.1398697793622974,-0.889686443107113 l 38.334042817252964 49.99501136398527" fill="red" stroke="none" /><path d="M 87.22198572758235 83.33499621200491 l -29.095013102828403 -37.945528407886414 a68.81613653995345,68.81613653995345 0 0,0 0.9462344813999696,-0.7126841938923748 l 28.437532467670046 38.44072919128464" fill="red" stroke="none" /><line stroke="#e1ed5e" stroke-width="0.3" x1="56.762969772571076" x2="54.21961505331055" y1="26.818313649435495" y2="22.513508569990535" /><path d="M 56.25429882871897 25.957352633546506 a86.0,86.0 0 0,1 42.265352541879196,-11.944610805530505" fill="none" id="id120" stroke="none" /><text fill="#e1ed5e" style="font-size:6.75px; font-family:Arial;" text-anchor="middle"><textPath startOffset="22.20632615414155" xlink:href="#id120">December</textPath></text><path d="M 90.26544431104013 81.39251694778311 l -6.51379833736489 -12.451045126336568 a35.051978277734676,35.051978277734676 0 0,0 0.5370288761965524,-0.27508704870258927 l 6.298508973579573 12.561324700351664" fill="red" stroke="none" /><path d="M 93.59665428221793 80.00007090966166 l -3.025320048199601 -9.449151913123393 a30.92164468580295,30.92164468580295 0 0,0 0.5083144783514638,-0.1579357827718907 l 2.8622201971374084 9.499827830777807" fill="red" stroke="none" /><path d="M 94.28887869178378 79.79150937346287 l -1.9141508023492448 -6.7731180024846855 a28.038401861908454,28.038401861908454 0 0,0 0.4655738053352851,-0.12725890815051993 l 1.7972791077902373 6.805063451461502" fill="red" stroke="none" /><path d="M 99.27714615592234 79.0124445844662 l -0.28467927905685153 -8.265463611780934 a29.270364623739333,29.270364623739333 0 0,0 0.5036919120549267,-0.013008876052489633 l 0.14236073180704578 8.269139279975782" fill="red" stroke="none" /></svg>